<svg width="56" height="56" viewBox="0 0 56 56" fill="none" xmlns="http://www.w3.org/2000/svg">
<path d="M5.2628 30.9585C5.08826 31.216 4.80356 31.3546 4.51451 31.3546C4.33997 31.3546 4.16358 31.3039 4.00822 31.1987L0.396118 28.7477C0.148544 28.5793 0 28.2996 0 28C0 27.7004 0.148544 27.4207 0.396118 27.2523L4.00822 24.8013C4.42105 24.5216 4.98243 24.6287 5.2628 25.0415C5.54256 25.4543 5.43549 26.0163 5.02266 26.2961L3.84297 27.097H9.14167C9.64053 27.097 10.0447 27.5011 10.0447 28C10.0447 28.4989 9.64053 28.903 9.14167 28.903H3.84297L5.02266 29.7033C5.43549 29.9837 5.54318 30.5457 5.2628 30.9585ZM41.335 15.5681C41.5658 15.5681 41.7973 15.4796 41.9737 15.3038L45.7201 11.5574L45.4521 12.9574C45.358 13.447 45.6793 13.9205 46.1695 14.0145C46.227 14.0257 46.284 14.0306 46.3403 14.0306C46.7649 14.0306 47.1437 13.7298 47.2266 13.2972L48.0479 9.00984C48.1042 8.71584 48.0114 8.41318 47.7997 8.20151C47.5881 7.98983 47.2854 7.89699 46.9914 7.95331L42.704 8.77464C42.2138 8.86872 41.8932 9.34159 41.9867 9.83178C42.0808 10.3214 42.5536 10.642 43.0438 10.5491L44.4439 10.2811L40.6974 14.0275C40.3447 14.3803 40.3447 14.9522 40.6974 15.305C40.8726 15.4802 41.1035 15.5681 41.335 15.5681ZM30.9585 50.7372C30.5457 50.4574 29.9843 50.5645 29.7039 50.9773L28.9036 52.157V46.8583C28.9036 46.3595 28.4995 45.9553 28.0006 45.9553C27.5018 45.9553 27.0976 46.3595 27.0976 46.8583V52.157L26.2973 50.9773C26.0169 50.5645 25.4556 50.4568 25.0427 50.7372C24.6299 51.017 24.5222 51.5789 24.8026 51.9918L27.2536 55.6039C27.4219 55.8515 27.7017 56 28.0012 56C28.3008 56 28.5806 55.8515 28.7489 55.6039L31.1999 51.9918C31.4784 51.5789 31.3707 51.017 30.9585 50.7372ZM47.2266 42.7028C47.1325 42.2132 46.6584 41.892 46.1695 41.9855C45.6793 42.0795 45.3587 42.5524 45.4521 43.0426L45.7201 44.4426L41.9737 40.6962C41.6209 40.344 41.049 40.3434 40.6962 40.6962C40.3434 41.049 40.3434 41.6209 40.6962 41.9737L44.4426 45.7201L43.0426 45.4521C42.5518 45.3587 42.0795 45.6793 41.9855 46.1695C41.8914 46.659 42.2126 47.1325 42.7028 47.2266L46.9902 48.0479C47.0465 48.0584 47.1034 48.064 47.1604 48.064C47.3974 48.064 47.6283 47.9706 47.7991 47.7997C48.0108 47.5881 48.1036 47.2854 48.0473 46.9914L47.2266 42.7028ZM55.6039 27.2523L51.9918 24.8013C51.5789 24.5216 51.0176 24.6287 50.7372 25.0415C50.4574 25.4543 50.5645 26.0163 50.9773 26.2961L52.157 27.0964H46.8583C46.3595 27.0964 45.9553 27.5005 45.9553 27.9994C45.9553 28.4982 46.3595 28.9024 46.8583 28.9024H52.157L50.9773 29.7027C50.5645 29.9824 50.4568 30.5444 50.7372 30.9573C50.9117 31.2147 51.1958 31.3534 51.4855 31.3534C51.66 31.3534 51.8364 31.3026 51.9918 31.1974L55.6039 28.7464C55.8515 28.5781 56 28.2983 56 27.9988C56 27.6992 55.8515 27.4207 55.6039 27.2523ZM14.0263 40.6962L10.2799 44.4426L10.5479 43.0426C10.642 42.553 10.3207 42.0795 9.83054 41.9855C9.34035 41.892 8.86748 42.2126 8.7734 42.7028L7.95208 46.9902C7.89575 47.2842 7.98859 47.5868 8.20027 47.7985C8.3711 47.9693 8.60196 48.0628 8.83901 48.0628C8.89533 48.0628 8.95228 48.0572 9.00922 48.0467L13.2966 47.2254C13.7868 47.1313 14.1074 46.6584 14.0139 46.1682C13.9198 45.678 13.4464 45.3574 12.9568 45.4509L11.5568 45.7189L15.3032 41.9725C15.656 41.6197 15.656 41.0478 15.3032 40.695C14.951 40.344 14.3791 40.3434 14.0263 40.6962ZM25.0415 5.2628C25.4543 5.54256 26.0163 5.43549 26.2961 5.02266L27.0964 3.84297V9.14167C27.0964 9.64053 27.5005 10.0447 27.9994 10.0447C28.4982 10.0447 28.9024 9.64053 28.9024 9.14167V3.84297L29.7027 5.02266C29.8772 5.28013 30.1613 5.41878 30.451 5.41878C30.6255 5.41878 30.8019 5.36802 30.9573 5.2628C31.3701 4.98305 31.4778 4.42105 31.1974 4.00822L28.7464 0.396118C28.5781 0.148544 28.2983 0 27.9988 0C27.6992 0 27.4194 0.148544 27.2511 0.396118L24.8001 4.00822C24.5216 4.42105 24.6293 4.98305 25.0415 5.2628ZM8.7734 13.2972C8.85634 13.7298 9.23513 14.0306 9.65972 14.0306C9.71604 14.0306 9.77298 14.0251 9.83054 14.0145C10.3207 13.9205 10.6413 13.4476 10.5479 12.9574L10.2799 11.5574L14.0263 15.3038C14.2027 15.4802 14.4336 15.5681 14.665 15.5681C14.8959 15.5681 15.1274 15.4796 15.3038 15.3038C15.6566 14.951 15.6566 14.3791 15.3038 14.0263L11.5574 10.2799L12.9574 10.5479C13.4482 10.6413 13.9205 10.3207 14.0145 9.83054C14.1086 9.34097 13.7874 8.86748 13.2972 8.7734L9.00984 7.95208C8.71584 7.89575 8.41318 7.98859 8.20151 8.20027C7.98983 8.41195 7.89699 8.7146 7.95331 9.0086L8.7734 13.2972ZM41.6011 28.5416C41.6011 32.2094 40.2902 35.7874 37.9098 38.616C35.5306 41.4433 32.2304 43.3471 28.6171 43.9772C28.4159 44.0125 28.2049 44.0713 28 44.0713C27.7957 44.0713 27.5835 44.0125 27.3829 43.9772C23.7696 43.3471 20.4694 41.4433 18.0902 38.616C15.7098 35.7874 14.3989 32.2094 14.3989 28.5416V18.2741C14.3989 17.9126 14.6143 17.5864 14.946 17.4441L27.6441 12.0024C27.8713 11.9052 28.1287 11.9052 28.3559 12.0024L41.054 17.4441C41.3863 17.5864 41.6011 17.9132 41.6011 18.2741V28.5416ZM39.7944 18.8695L28 13.8152L16.2056 18.8701V28.5416C16.2056 35.2941 21.037 41.0372 27.693 42.1978L28 42.251L28.307 42.1978C34.963 41.0372 39.7944 35.2941 39.7944 28.5416V18.8695ZM28 18.1496C33.4318 18.1496 37.8503 22.5682 37.8503 28C37.8503 33.4312 33.4318 37.8503 28 37.8503C22.5688 37.8503 18.1496 33.4318 18.1496 28C18.1496 22.5682 22.5688 18.1496 28 18.1496ZM28 19.9563C23.5647 19.9563 19.9563 23.5647 19.9563 28C19.9563 32.4353 23.5647 36.0437 28 36.0437C32.4353 36.0437 36.0437 32.4353 36.0437 28C36.0437 23.5647 32.4353 19.9563 28 19.9563ZM26.6606 27.7141L30.5896 23.7492C30.9925 23.3438 31.5285 23.1203 32.0986 23.1185C32.1004 23.1185 32.1029 23.1185 32.1048 23.1185C32.673 23.1185 33.2071 23.3388 33.6106 23.7399C34.4456 24.5699 34.4493 25.9247 33.6193 26.7597C32.7491 27.6385 29.6742 30.7604 28.1783 32.2564C27.7741 32.6606 27.2375 32.8828 26.6656 32.8828C26.0943 32.8828 25.5571 32.6606 25.1535 32.2564L22.3869 29.4898C21.9827 29.0856 21.7605 28.549 21.7605 27.9771C21.7605 27.4058 21.9827 26.8686 22.3869 26.465C23.2206 25.6313 24.5779 25.6313 25.4116 26.465L26.6606 27.7141ZM26.6631 29.897C26.4236 29.897 26.1939 29.8017 26.0244 29.6327L24.1335 27.7419C24.0042 27.6125 23.7931 27.6125 23.6637 27.7419C23.5789 27.8267 23.5666 27.9251 23.5666 27.9765C23.5666 28.0279 23.5789 28.1269 23.6637 28.2117L26.4304 30.9783C26.5597 31.1077 26.7708 31.1083 26.9002 30.9783C28.3918 29.4867 31.4636 26.3685 32.3363 25.4865C32.4656 25.3565 32.465 25.1479 32.3363 25.0198C32.2527 24.9369 32.1555 24.9245 32.1042 24.9245C32.0534 24.9245 31.955 24.9375 31.8714 25.0217L27.3049 29.6303C27.136 29.8011 26.9057 29.897 26.6656 29.8977C26.665 29.897 26.6637 29.897 26.6631 29.897Z" fill="white"/>
</svg>
